<?xml version="1.0" encoding="UTF-8"?>
<svg width="40" height="40" viewBox="0 0 40 40" fill="none" xmlns="http://www.w3.org/2000/svg">
  <path d="M20 4C12.268 4 6 10.268 6 18C6 25.732 12.268 32 20 32C27.732 32 34 25.732 34 18C34 10.268 27.732 4 20 4ZM20 28C14.477 28 10 23.523 10 18C10 12.477 14.477 8 20 8C25.523 8 30 12.477 30 18C30 23.523 25.523 28 20 28Z" fill="#1F4D46"/>
  <path d="M20 12C16.686 12 14 14.686 14 18C14 21.314 16.686 24 20 24C23.314 24 26 21.314 26 18C26 14.686 23.314 12 20 12Z" fill="#1F4D46"/>
</svg> 